<svg height="647pt" viewBox="-20 -36 647.49911 647" width="647pt" xmlns="http://www.w3.org/2000/svg"><path d="m321.089844 269.167969c-4.851563 0-9.238282-3.324219-10.375-8.253907-2.144532-9.335937-3.230469-18.976562-3.230469-28.675781 0-70.480469 57.328125-127.808593 127.808594-127.808593 70.472656 0 127.800781 57.328124 127.800781 127.808593 0 8.660157-.871094 17.3125-2.601562 25.746094-1.171876 5.757813-6.804688 9.449219-12.566407 8.292969-5.761719-1.171875-9.480469-6.800782-8.296875-12.5625 1.433594-7.019532 2.160156-14.253906 2.160156-21.476563 0-58.726562-47.777343-106.511719-106.503906-106.511719-58.726562 0-106.507812 47.785157-106.507812 106.511719 0 8.085938.902344 16.132813 2.699218 23.890625 1.320313 5.726563-2.257812 11.449219-7.992187 12.773438-.792969.1875-1.609375.265625-2.394531.265625zm0 0"/><path d="m390.148438 203.960938c-2.460938 0-4.933594-.855469-6.957032-2.589844-4.449218-3.835938-4.949218-10.574219-1.097656-15.023438 13.367188-15.484375 32.75-24.367187 53.199219-24.367187 13.402343 0 26.433593 3.792969 37.6875 10.960937 4.964843 3.164063 6.417969 9.742188 3.269531 14.707032-3.160156 4.96875-9.757812 6.417968-14.703125 3.261718-7.832031-4.988281-16.910156-7.625-26.253906-7.625-14.25 0-27.761719 6.183594-37.082031 16.984375-2.101563 2.441407-5.078126 3.691407-8.0625 3.691407zm0 0"/><path d="m105.113281 273.007812c-2.398437 0-4.828125-.808593-6.824219-2.484374l-76.707031-64.148438c-13.09375-10.949219-21.140625-26.339844-22.65625-43.34375s3.6875-33.574219 14.644531-46.667969c22.710938-27.1875 40.171876-22.476562 82.378907-11.097656l3.570312.953125c65.75 17.695312 141.195313 87.570312 162.222657 135.867188l5.328124 12.121093c2.371094 5.382813-.0625 11.671875-5.441406 14.050781-5.40625 2.371094-11.675781-.058593-14.050781-5.4375l-5.367187-12.226562c-18.746094-43.050781-89.046876-107.882812-148.226563-123.800781l-3.574219-.96875c-42.582031-11.472657-46.898437-12.085938-60.492187 4.195312-7.316407 8.730469-10.777344 19.78125-9.769531 31.117188 1.011718 11.339843 6.378906 21.605469 15.097656 28.90625l76.714844 64.15625c4.515624 3.765625 5.105468 10.480469 1.339843 14.996093-2.117187 2.515626-5.140625 3.8125-8.1875 3.8125zm0 0"/><path d="m102.085938 187.171875c-5.449219 0-10.085938-4.152344-10.597657-9.6875-.53125-5.855469 3.785157-11.035156 9.640625-11.574219l82.199219-7.488281c5.90625-.554687 11.042969 3.785156 11.582031 9.640625.523438 5.859375-3.796875 11.039062-9.640625 11.574219l-82.203125 7.488281c-.332031.035156-.660156.046875-.980468.046875zm0 0"/><path d="m167.433594 241.839844c-5.199219 0-9.757813-3.808594-10.523438-9.101563-.851562-5.824219 3.164063-11.230469 8.988282-12.085937l65.480468-9.597656c5.9375-.914063 11.246094 3.171874 12.085938 8.988281.851562 5.828125-3.164063 11.230469-8.988282 12.085937l-65.480468 9.601563c-.53125.078125-1.050782.109375-1.5625.109375zm0 0"/><path d="m443.855469 573.054688h-251.433594c-41.3125 0-78.429687-27.65625-90.234375-67.242188l-71.167969-238.574219c-.972656-3.222656-.347656-6.71875 1.664063-9.417969 2.003906-2.691406 5.171875-4.28125 8.535156-4.28125h553.828125c3.363281 0 6.535156 1.59375 8.542969 4.28125 2.003906 2.699219 2.628906 6.195313 1.664062 9.417969l-71.171875 238.574219c-11.808593 39.585938-48.914062 67.242188-90.226562 67.242188zm-388.34375-298.210938 67.089843 224.871094c9.136719 30.644531 37.839844 52.042968 69.820313 52.042968h251.433594c31.96875 0 60.671875-21.398437 69.820312-52.042968l67.085938-224.871094zm0 0"/><path d="m563.101562 370.695312h-489.929687c-5.886719 0-10.652344-4.761718-10.652344-10.648437s4.765625-10.648437 10.652344-10.648437h489.929687c5.882813 0 10.644532 4.761718 10.644532 10.648437s-4.761719 10.648437-10.644532 10.648437zm0 0"/><path d="m531.148438 487.851562h-426.019532c-5.890625 0-10.65625-4.765624-10.65625-10.65625 0-5.882812 4.765625-10.644531 10.65625-10.644531h426.019532c5.886718 0 10.644531 4.761719 10.644531 10.644531 0 5.890626-4.757813 10.65625-10.644531 10.65625zm0 0"/><path d="m201.863281 573.054688c-5.890625 0-10.652343-4.761719-10.652343-10.644532v-298.21875c0-5.886718 4.761718-10.652344 10.652343-10.652344 5.886719 0 10.648438 4.765626 10.648438 10.652344v298.21875c0 5.882813-4.761719 10.644532-10.648438 10.644532zm0 0"/><path d="m424.636719 573.054688c-5.886719 0-10.644531-4.761719-10.644531-10.644532v-298.21875c0-5.886718 4.757812-10.652344 10.644531-10.652344 5.890625 0 10.65625 4.765626 10.65625 10.652344v298.21875c0 5.882813-4.765625 10.644532-10.65625 10.644532zm0 0"/><path d="m520.765625 162.820312c-.804687 0-1.613281-.082031-2.421875-.277343-5.730469-1.324219-9.300781-7.050781-7.953125-12.785157l21.035156-90.34375c1.332031-5.738281 7.054688-9.355468 12.789063-7.953124 5.730468 1.332031 9.292968 7.050781 7.953125 12.78125l-21.039063 90.347656c-1.144531 4.921875-5.527344 8.230468-10.363281 8.230468zm0 0"/><path d="m519.582031 113.886719c-.941406 0-1.871093-.128907-2.800781-.375-9.308594-2.527344-91.394531-25.878907-104.3125-65.035157-2.773438-8.429687-3.710938-21.46875 7.609375-35.820312 11.171875-14.15625 23.296875-15.660156 31.496094-14.488281 38.171875 5.582031 71.59375 85.234375 77.902343 101.136719 1.488282 3.75.726563 8.019531-1.957031 11.023437-2.046875 2.296875-4.957031 3.558594-7.9375 3.558594zm-72.484375-94.761719c-2.097656 0-5.6875.894531-10.289062 6.714844-5.929688 7.511718-5.1875 12.703125-4.117188 15.957031 5.539063 16.8125 38.679688 33.605469 67.636719 44.113281-14.925781-31.082031-36.289063-64.398437-51.832031-66.664062-.355469-.050782-.824219-.121094-1.398438-.121094zm0 0"/><path d="m317.25 573.054688c-5.886719 0-10.65625-4.761719-10.65625-10.644532v-298.21875c0-5.886718 4.769531-10.652344 10.65625-10.652344s10.652344 4.765626 10.652344 10.652344v298.21875c0 5.882813-4.765625 10.644532-10.652344 10.644532zm0 0"/></svg>