<?xml version="1.0" encoding="utf-8"?>
<!-- Generator: Adobe Illustrator 21.1.0, SVG Export Plug-In . SVG Version: 6.00 Build 0)  -->
<svg version="1.1"
	 id="Layer_1" xmlns:cc="http://creativecommons.org/ns#" xmlns:dc="http://purl.org/dc/elements/1.1/" xmlns:inkscape="http://www.inkscape.org/namespaces/inkscape" xmlns:rdf="http://www.w3.org/1999/02/22-rdf-syntax-ns#" xmlns:sodipodi="http://sodipodi.sourceforge.net/DTD/sodipodi-0.dtd" xmlns:svg="http://www.w3.org/2000/svg"
	 xmlns="http://www.w3.org/2000/svg" xmlns:xlink="http://www.w3.org/1999/xlink" x="0px" y="0px" viewBox="0 0 100 125"
	 style="enable-background:new 0 0 100 125;" xml:space="preserve">
<g transform="translate(0,-952.36218)">
	<path d="M42,974.4c-16.5,0-30,13.5-30,30c0,16.5,13.5,30,30,30c7.6,0,14.4-2.8,19.7-7.4l22.9,22.8c0.8,0.8,2,0.8,2.8,0
		c0.8-0.8,0.8-2,0-2.8l-22.8-22.8c4.6-5.3,7.4-12.2,7.4-19.8C72,987.8,58.5,974.4,42,974.4L42,974.4z M42,978.4
		c14.4,0,26,11.6,26,26c0,14.4-11.6,26-26,26c-14.4,0-26-11.6-26-26C16,990,27.6,978.4,42,978.4z"/>
</g>
</svg>
